#!OML:ASF F:\VICON\USERDATA\INSTALL\rory3\rory3.ASF
:FULLY-SPECIFIED
:DEGREES
29
root -0.26356760143870217 17.069838287553836 4.618540146372897 4.9636943162020755 5.80678189827725 0.09231980370288673
lfemur 15.689395034341798 -3.399622541378371 -25.466496751126428
ltibia 44.43313971946612
lfoot -4.789819691767385 -10.397137126179814
ltoes -27.834838572737517
rfemur -42.232878985144666 2.6378118931676084 23.709484356319454
rtibia 46.53812082976214
rfoot 9.474675287229882 -7.644205630309816
rtoes -2.872352320449098
lowerback 14.77404561464956 -1.0145725836506954 -2.9948767838312813
upperback -1.4701094203939438 -1.6878845625050882 1.9289155641784204
thorax -9.68105762825394 -0.5808472179052965 4.5625272604639875
lowerneck -21.6510762744746 -2.840201459835814 -2.116980576381657
upperneck 13.996040994933592 -3.3882485362231334 1.9481282135904148
head 7.835160423043838 -1.602574126012615 0.5314417857423502
lclavicle -2.0739259267157805e-15 1.5333212473199332e-15
lhumerus -33.64019544485892 -19.676284879717144 97.79716380603901
lradius 120.55371983718076
lwrist 36.62232356942301
lhand -27.551605650178224 2.0565083667298194
lfingers 7.12502
lthumb -0.9526671613674933 32.00528971730157
rclavicle -2.0739259267157805e-15 1.5333212473199332e-15
rhumerus -63.80107920016435 0.9105842875199972 -91.18802892337906
rradius 99.62999453696973
rwrist -6.142578648210545
rhand -16.563692873373324 39.52845722453506
rfingers 7.12502
rthumb 9.65580372954588 9.845458658617169
30
root -0.37839322018517785 17.32166171369186 6.466761218651963 4.049964695620899 5.7136554974597065 -1.2274333129794806
lfemur 11.366375783318523 -2.9225595011862326 -22.853484217553614
ltibia 58.26861709136511
lfoot 8.992228214609328 -14.11984547142621
ltoes -29.194296293731348
rfemur -39.52853410076855 2.0586254465882114 26.362195356106046
rtibia 55.52224470881442
rfoot 10.818151503870503 -3.6927836619812617
rtoes 7.619904808903417
lowerback 15.00358281529962 -1.0140784915613485 -1.5203732640634267
upperback -1.4832832591997194 -1.4674166467722278 2.6415997540479235
thorax -9.821030551021051 -0.5111549006810815 4.106101161668052
lowerneck -21.35955378487369 -2.6359310810832204 -2.0841965828456206
upperneck 14.373022286263783 -3.0068966968098967 1.6670271096203497
head 7.8821453145610665 -1.4877423561895076 0.4660464822227045
lclavicle -2.016011867053417e-15 1.5753282100060468e-15
lhumerus -37.82444818628304 -18.17022211029869 98.44819916958657
lradius 119.7024763396532
lwrist 36.100015495702294
lhand -26.83851463789839 2.5196766814044853
lfingers 7.12502
lthumb -0.2640238135161761 32.46518432617299
rclavicle -2.016011867053417e-15 1.5753282100060468e-15
rhumerus -65.0304309374757 -0.5088263569293741 -89.82124144662298
rradius 98.41270029168255
rwrist -5.131196899466871
rhand -16.316244712696772 39.65633867748939
rfingers 7.12502
rthumb 9.89459727394987 9.947392803027478
31
root -0.5082826317448247 17.784456424063983 7.52976827003427 3.152798946460459 5.535865590649811 -2.5838981202551787
lfemur 3.668844898187233 -1.2819045877627708 -19.753499399130593
ltibia 75.79785580046484
lfoot 23.858798324619972 -17.63796032417944
ltoes -23.416607246082826
rfemur -34.74738225382238 2.1061252127748435 28.965323840167652
rtibia 59.25415200871647
rfoot 9.573105378781278 -2.9006063603166217
rtoes 16.239007906123813
lowerback 15.396838875625248 -0.9323733263522538 -0.05174719369046188
upperback -1.5379070837981128 -1.1327192385306772 3.306241796756993
thorax -10.013667902623618 -0.3909973957701237 3.54650504733647
lowerneck -21.159041039933168 -2.7004069317422346 -2.027483082765266
upperneck 14.681445412070026 -3.130057674980955 1.66976545457549
head 7.934937596920469 -1.55300418224323 0.4534388243403832
lclavicle -1.915837567443995e-15 1.6479879145283562e-15
lhumerus -42.75851613265105 -17.73630192926011 99.30206934277014
lradius 118.52556082444234
lwrist 35.76980084486705
lhand -25.669507202126514 3.0685920351583293
lfingers 7.12502
lthumb 0.864943833885232 33.018263992493374
rclavicle -1.915837567443995e-15 1.6479879145283562e-15
rhumerus -64.76036080376115 -0.5570914298218632 -89.65908415501023
rradius 97.84834091934043
rwrist -5.256212549436957
rhand -15.74311404179972 39.60057084752893
rfingers 7.12502
rthumb 10.447761630259883 10.005325196018523
32
root -0.6216785633895384 18.235977904004866 8.372342500387466 2.397519913221493 5.29029225027577 -3.7706995826391934
lfemur -6.135864504316437 1.3096608696256011 -16.845152507020405
ltibia 91.31414697731145
lfoot 31.378076838359632 -19.01403337549329
ltoes -17.415727370684788
rfemur -28.464560805061083 2.8793214724430785 31.24822924301315
rtibia 59.26732285225488
rfoot 6.477023335570435 -3.6290308337059347
rtoes 20.25324775266858
lowerback 15.722788597836558 -0.7315447923262295 1.3256787554065825
upperback -1.364382075387952 -0.6321238695711884 3.7272982899246556
thorax -10.105973052230665 -0.20366467211902317 2.838740690128136
lowerneck -20.763465584288628 -3.040983535095842 -1.9560381143111232
upperneck 14.854520635097321 -3.7187494624081467 1.9174274278681906
head 7.94900901896013 -1.7920849249514759 0.47928765815285324
lclavicle -1.9277251692213177e-15 1.6393654479232336e-15
lhumerus -46.38979143292522 -17.779747794358478 100.03127039384147
lradius 116.7636100188018
lwrist 35.06407542165093
lhand -24.644105501598336 3.678995455785833
lfingers 7.12502
lthumb 1.855231206832138 33.63491506535177
rclavicle -1.9277251692213177e-15 1.6393654479232336e-15
rhumerus -62.81052988191752 1.0512085571584162 -91.0455329658126
rradius 98.80340634213319
rwrist -6.209338820019639
rhand -15.296613262037331 40.03505431900717
rfingers 7.12502
rthumb 10.878636053411993 10.367858379875043
